<?xml version="1.0" encoding="UTF-8" standalone="no"?>
<!-- Created with Inkscape (http://www.inkscape.org/) -->

<svg
   version="1.1"
   id="svg1"
   width="50.880001"
   height="83.839996"
   viewBox="0 0 50.880001 83.839996"
   xmlns="http://www.w3.org/2000/svg"
   xmlns:svg="http://www.w3.org/2000/svg">
  <defs
     id="defs1" />
  <g
     id="g1">
    <path
       style="display:inline;fill:#ff0036;fill-opacity:0.913725"
       d="m 12.8,83.664185 c -0.264,-0.05586 -1.032108,-0.191957 -1.706907,-0.302428 L 9.8661855,83.1609 10.090805,79.397485 C 10.349019,75.071208 10.171642,74.491602 7.8109281,71.947641 7.0492562,71.126846 6.3293693,70.069999 6.2111794,69.599093 5.9935018,68.731797 6.1719869,66.417451 6.6783316,63.541716 7.0514476,61.422641 6.6219222,59.971193 5.4409916,59.36051 4.0677998,58.650405 3.7679092,58.739547 2.1439759,60.340541 L 0.66250553,61.801084 0.41125277,60.900541 C 0.27306375,60.405242 0.16,58.775997 0.16,57.279997 c 0,-3.242296 0.69950644,-5.599995 3.1205642,-10.517918 1.4468664,-2.939037 3.7594359,-6.364206 3.7594359,-5.568138 0,0.161973 -0.3419868,0.615776 -0.7599707,1.008452 -0.9246573,0.86867 -4.0728609,7.132854 -4.9501784,9.84969 -0.35025286,1.084646 -0.73734677,2.776646 -0.86020866,3.759999 -0.25773257,2.062822 0.0767237,5.403555 0.51392357,5.133351 0.16303879,-0.100764 0.29732129,-0.426708 0.29840559,-0.724321 0.00108,-0.297613 0.1958987,-0.901115 0.4329211,-1.341115 0.2370223,-0.44 0.8167048,-1.52 1.2881835,-2.399999 1.4405529,-2.688747 4.7429454,-6.98838 6.5236983,-8.493693 0.9280096,-0.784469 2.0081256,-1.696572 2.4002576,-2.026897 0.392133,-0.330324 1.156432,-0.790005 1.698442,-1.021512 0.542011,-0.231507 1.16553,-0.637876 1.385598,-0.903041 0.220068,-0.265166 0.928604,-0.653473 1.574526,-0.862906 C 17.231519,42.962516 18.12,42.542043 18.56,42.237563 c 0.44,-0.30448 1.16,-0.648329 1.6,-0.76411 0.868937,-0.228649 -0.02668,0.323256 -3.04,1.873341 -1.573229,0.809286 -4.001979,2.283379 -5.804373,3.522877 -1.9045398,1.309743 -4.8712209,4.687351 -7.0139755,7.985509 l -0.6075712,0.935182 0.7929599,-0.519009 c 0.436128,-0.285455 1.4409599,-0.621708 2.2329599,-0.747229 1.559296,-0.247126 2.4049266,-0.748456 5.1391219,-3.046715 1.733156,-1.456824 6.204443,-3.934891 8.780878,-4.866519 2.964676,-1.072014 3.540055,-1.27301 3.920001,-1.369365 0.592164,-0.150174 0.501194,-2.888049 -0.156969,-4.724178 -0.679979,-1.896993 -1.482536,-2.367275 -3.202088,-1.876362 -0.660519,0.188572 -2.568944,0.336298 -4.240944,0.328281 -1.672,-0.008 -3.688,0.07155 -4.48,0.176813 -1.012356,0.134551 -1.20242,0.109174 -0.64,-0.08545 0.44,-0.15226 1.447644,-0.29119 2.239209,-0.308734 1.322313,-0.02931 7.191784,-1.733998 7.769647,-2.256566 0.13687,-0.123773 -0.159752,-0.739207 -0.65916,-1.367631 l -0.908015,-1.142589 -2.86084,1.620322 c -1.573463,0.891177 -3.457458,1.801009 -4.186656,2.02185 -1.666247,0.504629 -3.7747445,1.824755 -4.9977658,3.12909 -0.9076948,0.968044 -0.933497,0.975263 -0.7277767,0.203626 0.1633569,-0.612736 0.1346165,-0.687641 -0.1227801,-0.32 -0.1848342,0.264 -0.3382671,0.354368 -0.3409622,0.200818 -0.0027,-0.15355 -0.22438,-0.09703 -0.4926332,0.1256 -0.7150291,0.593422 -0.93596,0.153036 -0.4779481,-0.952702 0.4856449,-1.17245 2.4024415,-2.954178 4.1217431,-3.8313 0.695696,-0.354917 1.316798,-0.800996 1.380228,-0.991286 0.06343,-0.19029 0.328714,-0.38352 0.589519,-0.429401 1.626875,-0.286199 5.29032,-1.742648 6.108887,-2.428666 1.034575,-0.867048 1.034732,-1.74612 3.6e-4,-2.016615 -0.612975,-0.160296 -3.863745,2.136049 -4.914037,3.471279 -0.34869,0.443288 -0.69754,0.742419 -0.775223,0.664736 -0.226113,-0.226113 1.332939,-1.778383 3.141163,-3.127498 0.917746,-0.68473 1.538581,-1.244964 1.379633,-1.244964 -0.158948,0 0.01431,-0.212442 0.385012,-0.472094 0.983561,-0.688913 2.191966,-4.0644 2.637667,-7.367906 0.925265,-6.857988 1.200684,-7.975074 2.451559,-9.943393 1.208713,-1.901975 5.758974,-6.8566062 6.297007,-6.8566062 0.157768,0 0.888797,-0.4126287 1.624508,-0.9169526 3.649995,-2.5020428 5.850538,-3.159194 13.462272,-4.02025788 5.215386,-0.5899812 6.484022,-0.62186225 6.763311,-0.16996319 0.132484,0.21436364 -0.07796,0.26163128 -0.591267,0.13280074 C 49.107223,0.20725436 39.324062,1.2465659 38.804076,1.6695411 c -0.217759,0.1771326 -0.621238,0.2355986 -0.89662,0.1299244 -0.28799,-0.1105119 -0.417641,-0.057749 -0.30519,0.1241998 0.107528,0.173984 -0.06499,0.3228296 -0.38338,0.3307679 -0.318387,0.00794 -1.010885,0.2215266 -1.538885,0.4746408 l -0.96,0.4602077 1.44,-0.1378667 c 3.036957,-0.2907604 4.920666,-0.4198528 4,-0.2741239 -0.528,0.083575 -1.104,0.306 -1.28,0.4942773 -0.2228,0.2383413 -0.174199,0.2627541 0.16,0.080371 0.316422,-0.172682 0.275804,-0.029022 -0.119189,0.4215543 -0.329553,0.3759282 -1.265553,0.934678 -2.08,1.2416663 -0.814446,0.3069883 -1.912811,0.8070613 -2.440811,1.1112734 -0.976106,0.5623923 -3.806887,1.0577593 -3.535529,0.618693 0.08172,-0.1322279 0.657214,-0.2595357 1.278872,-0.2829062 1.322881,-0.049732 3.161904,-0.9130407 2.888234,-1.3558483 C 34.927437,4.9378671 34.77023,4.7999998 34.68223,4.7999998 c -0.088,0 -0.071,0.144 0.03777,0.32 0.108774,0.176 0.0093,0.3383777 -0.221115,0.3608394 C 32.918679,5.6349021 32.60477,5.7108729 32.216323,6.0332554 31.976958,6.2319108 31.681847,6.29518 31.56052,6.1738536 31.439194,6.0525272 31.668443,5.7708792 32.069963,5.5479693 c 1.045051,-0.580176 -0.01105,-0.538207 -1.128926,0.044863 -0.494429,0.2578892 -1.286429,0.509002 -1.76,0.5580285 C 28.367562,6.2350758 24.64,9.3993882 24.64,10.005729 c 0,0.142704 1.078607,-0.5382053 2.396906,-1.5131331 2.709625,-2.0038621 3.274807,-2.232886 1.902963,-0.771121 -0.909608,0.96923 -0.914111,0.989268 -0.139869,0.6223468 0.761053,-0.3606712 0.76929,-0.3545574 0.169182,0.1255859 -0.34695,0.2775928 -0.821183,0.4316646 -1.05385,0.3423818 -0.551987,-0.2118174 -2.827027,1.2305426 -3.28208,2.0808176 -0.42056,0.785825 -1.264273,3.507392 -1.087325,3.507392 0.195709,0 1.868742,-3.33483 1.80127,-3.590445 -0.08031,-0.304237 0.910607,-0.8222392 1.924663,-1.0061226 1.275099,-0.2312195 2.745005,-1.1003982 2.949259,-1.743943 0.138639,-0.4368124 0.420909,-0.5531229 1.100348,-0.4534024 0.50263,0.073771 1.369533,-0.1015026 1.92645,-0.3894956 1.071229,-0.5539538 5.391505,-0.8858543 5.669792,-0.4355756 0.08803,0.1424418 0.392225,0.2589851 0.675979,0.2589851 0.283755,0 0.793093,0.252 1.131863,0.56 0.33877,0.308 1.286109,0.7276734 2.105197,0.9326076 L 44.32,8.9052152 42.56,8.7847273 c -1.355145,-0.092772 -1.53917,-0.058375 -0.8,0.1495315 1.297459,0.3649367 0.108685,0.400734 -1.699641,0.051181 -0.89956,-0.1738869 -1.650318,-0.1411994 -2.157503,0.093936 -1.004685,0.4657806 -0.997041,0.8406238 0.01714,0.8406238 0.44,0 0.8,0.1250954 0.8,0.2779894 0,0.152895 -0.828,0.08314 -1.84,-0.155001 -1.012,-0.2381451 -2.704,-0.4556748 -3.76,-0.4833994 -1.813466,-0.047611 -1.848977,-0.063125 -0.64,-0.279589 0.704,-0.1260493 1.046,-0.249615 0.76,-0.2745903 -0.286,-0.024975 -0.94368,-0.1301457 -1.461511,-0.2337118 -0.805622,-0.1611244 -1.159562,0.023619 -2.452283,1.2799995 -0.830924,0.807567 -1.633838,1.468302 -1.784253,1.468302 -0.388986,0 -0.704486,0.952296 -0.45125,1.362041 0.125053,0.202339 0.846916,-0.370285 1.750853,-1.388878 1.889008,-2.1286098 2.062392,-1.438673 0.278444,1.107997 -1.458013,2.081381 -1.618201,2.548124 -0.52065,1.517029 0.967382,-0.908808 2.756254,-1.090255 5.184267,-0.525845 1.040107,0.241781 1.940625,0.390081 2.00115,0.329556 0.254441,-0.254441 -1.18283,-0.726919 -2.746635,-0.90291 -2.594479,-0.291984 -2.965398,-0.749593 -0.483062,-0.595963 1.190711,0.07369 2.21293,0.260658 2.271596,0.41548 0.05867,0.154821 0.365035,0.281493 0.680818,0.281493 0.777514,0 1.540654,0.896532 0.928555,1.090861 -1.315335,0.417592 -1.379072,0.459266 -0.740039,0.483876 0.3608,0.01389 0.808111,-0.126848 0.994025,-0.312762 0.391653,-0.391653 2.349975,1.082717 2.349975,1.769235 0,0.227875 0.55561,0.916279 1.23469,1.529787 0.67908,0.613507 1.429635,1.555878 1.6679,2.094157 0.238265,0.538278 0.530339,0.918659 0.649052,0.84529 0.118713,-0.07337 0.392474,0.07943 0.608358,0.339556 0.215884,0.260124 0.542449,0.38029 0.725701,0.267034 0.183251,-0.113256 0.242719,-0.05954 0.13215,0.119362 -0.110569,0.178904 0.90176,1.533153 2.249621,3.009442 1.510245,1.654145 1.81401,2.074796 0.791592,1.096191 -1.909936,-1.828092 -2.11286,-1.683343 -0.60247,0.429753 1.256818,1.758339 1.749391,2.584064 1.263589,2.118218 -0.183539,-0.176 -0.904944,-1.143721 -1.603122,-2.15049 -0.698177,-1.00677 -1.361134,-1.76277 -1.473237,-1.68 -0.112103,0.08277 -0.136891,0.05956 -0.05508,-0.05159 0.08181,-0.111141 -0.02079,-0.507141 -0.227985,-0.88 -0.207199,-0.372859 -0.352504,-0.76681 -0.3229,-0.875447 0.0296,-0.108636 -0.320111,-0.540636 -0.777143,-0.96 l -0.830969,-0.762478 0.211225,0.88 c 0.204226,0.850843 0.01229,1.040789 -0.920969,0.911437 -0.356161,-0.04937 1.310752,1.508793 2.267506,2.119568 0.496809,0.317153 0.506724,0.356017 0.05249,0.205763 -0.996925,-0.32977 -0.628704,0.81075 0.48,1.486739 1.063854,0.648645 1.000247,0.894624 -0.08162,0.315627 -1.023981,-0.548018 -0.979737,0.170263 0.04788,0.777291 0.641237,0.378787 0.863748,0.681565 0.654591,0.890722 -0.284571,0.28457 -1.429424,0.05339 -4.448986,-0.898379 -0.314527,-0.09914 0.0041,0.333188 0.708133,0.960729 1.294744,1.154124 1.984454,1.483137 1.573281,0.750503 -0.506697,-0.902841 3.144655,2.883626 3.721515,3.859226 0.344469,0.582575 0.481035,0.969443 0.30348,0.859708 -0.177555,-0.109735 -0.537373,-0.614404 -0.799596,-1.121486 -0.262222,-0.507083 -1.233198,-1.428248 -2.157724,-2.047034 -0.924526,-0.618787 -2.458249,-1.767543 -3.408273,-2.552792 -1.725507,-1.42623 -3.367771,-2.251545 -2.571789,-1.292446 0.207609,0.250153 0.270206,0.454824 0.139106,0.454824 -0.131101,0 -0.05621,0.21948 0.166418,0.487733 1.36695,1.647074 -1.659154,0.07726 -3.243733,-1.682716 -0.698808,-0.776156 -0.6435,-0.761588 0.660356,0.173939 0.782672,0.561574 1.551066,1.021044 1.707541,1.021044 0.156475,0 -0.238941,-0.936 -0.878702,-2.08 -1.309153,-2.340983 -1.332731,-2.864994 -0.0288,-0.64 0.464143,0.792 0.981826,1.458 1.150407,1.48 0.457933,0.05976 0.702533,0.138714 1.649634,0.532477 1.525599,0.634278 5.405992,1.745075 5.559585,1.591481 0.08179,-0.08179 -0.717862,-0.610582 -1.777001,-1.175097 -1.059139,-0.564516 -1.925707,-1.093645 -1.925707,-1.175844 0,-0.0822 0.445382,0.08086 0.989738,0.362361 0.544355,0.281497 1.06231,0.439241 1.151009,0.350541 0.0887,-0.0887 -0.392682,-0.451417 -1.069737,-0.80604 -0.677056,-0.354622 -1.66301,-1.020485 -2.19101,-1.479696 -0.643964,-0.560067 -0.395116,-0.460501 0.755908,0.302444 1.868138,1.238278 2.284092,1.366176 2.284092,0.702315 0,-0.393094 -0.925181,-1.4048 -2.735082,-2.990873 -0.360295,-0.315738 -0.464815,-0.445549 -0.232267,-0.288469 0.977741,0.660438 0.618879,-0.09992 -0.597689,-1.266392 -0.959857,-0.920329 -1.20804,-1.055048 -0.922201,-0.500591 0.273858,0.531215 0.281753,0.691042 0.02634,0.533187 -0.254463,-0.157267 -0.309006,0.04876 -0.180387,0.681384 0.15108,0.743101 0.09086,0.693714 -0.333571,-0.27356 -0.384016,-0.875172 -0.770345,-1.235811 -1.494143,-1.394783 -0.686036,-0.150679 -0.849772,-0.292553 -0.550845,-0.4773 0.233949,-0.144589 0.675655,-0.128936 0.981567,0.03478 1.052856,0.563472 1.076784,0.294368 0.03054,-0.343524 -1.037188,-0.632374 -1.957102,-0.916479 -1.032265,-0.318804 0.264,0.17061 0.317632,0.312405 0.119182,0.3151 -0.388972,0.0053 -1.288561,-0.928789 -0.958365,-0.9951 0.814263,-0.163521 1.10999,-0.08559 1.959183,0.516317 0.528,0.374244 1.788,1.141403 2.8,1.704799 1.400834,0.779865 1.84,0.909138 1.84,0.54162 0,-0.265505 -0.252,-0.756141 -0.56,-1.090303 -0.308,-0.334162 -0.913358,-0.996961 -1.34524,-1.472887 -0.431883,-0.475927 -1.547883,-1.202597 -2.480001,-1.614824 -0.932117,-0.412227 -1.694759,-0.822387 -1.694759,-0.911467 0,-0.08908 0.608518,0.110478 1.352262,0.443462 0.743744,0.332984 1.406164,0.551524 1.472043,0.485644 0.699936,-0.699935 -3.833513,-1.90738 -6.289001,-1.675022 -1.107804,0.10483 -1.565869,0.06769 -1.175304,-0.09529 0.352,-0.146888 1.432,-0.293113 2.4,-0.324945 l 1.76,-0.05788 -1.76,-0.443495 c -1.791106,-0.451333 -3.2,-0.364336 -3.2,0.197593 0,0.313912 -1.025574,1.756221 -3.752051,5.276672 -1.703558,2.199651 -2.226007,2.789542 -1.842192,2.08 0.142806,-0.264 0.878291,-1.272 1.634409,-2.24 4.014535,-5.139496 4.708122,-6.45538 2.039834,-3.870002 -0.88,0.852656 -1.6,1.703462 -1.6,1.89068 0,0.187219 -0.541394,0.965929 -1.203097,1.730467 -1.099402,1.27026 -2.3463,3.530898 -3.733281,6.768473 -0.292079,0.68179 -0.60389,1.166782 -0.692912,1.077759 -0.25794,-0.25794 0.230167,-1.849884 0.513503,-1.674773 0.140769,0.087 0.09016,-0.19311 -0.112464,-0.622467 -0.291865,-0.618456 -0.422217,-0.684496 -0.627398,-0.317858 -0.142444,0.254534 -0.176026,0.597028 -0.07463,0.761097 0.1014,0.164069 -0.224446,0.774928 -0.724102,1.357465 -0.499657,0.582538 -1.220516,1.671159 -1.601909,2.419159 -0.669165,1.312387 -0.671971,1.36 -0.08014,1.36 0.337314,0 0.704707,0.288 0.816427,0.64 0.233011,0.734152 0.510562,0.801438 1.056,0.256 0.580374,-0.580374 0.463761,-0.894873 -0.336,-0.906177 -0.701987,-0.0099 -0.70446,-0.02193 -0.09884,-0.48 0.341639,-0.258403 0.506721,-0.469823 0.36685,-0.469823 -0.139871,0 0.192607,-0.509011 0.738839,-1.131135 0.546232,-0.622124 0.993325,-1.234124 0.99354,-1.36 2.15e-4,-0.125876 0.360215,-0.647263 0.8,-1.158638 0.439802,-0.511361 0.799626,-0.820148 0.799626,-0.68618 0,0.133969 -0.36,0.671415 -0.8,1.194325 -0.44,0.52291 -0.8,1.093503 -0.8,1.267984 0,0.412547 1.812655,-0.87821 2.224108,-1.583745 0.174037,-0.298428 0.32081,-0.368736 0.326162,-0.156239 0.0054,0.212496 -0.508642,0.788496 -1.142208,1.28 -1.318181,1.022607 -2.414352,1.968261 -1.8737,1.616418 0.200488,-0.130473 0.451924,-0.149824 0.558747,-0.043 0.106822,0.106823 0.669572,0.03405 1.250557,-0.161712 l 1.056335,-0.355934 -0.791054,0.613908 c -0.435079,0.337649 -0.911263,0.539614 -1.058187,0.44881 C 22.233707,28.659453 20.8,29.083318 20.8,29.446095 c 0,0.414619 1.18573,0.405321 1.443226,-0.01132 0.110549,-0.178871 0.348737,-0.233912 0.529308,-0.122313 0.18057,0.111599 0.767175,-0.12156 1.303566,-0.518131 0.536391,-0.396571 0.850507,-0.52153 0.698036,-0.277687 -0.152471,0.243843 -0.281026,0.641042 -0.285678,0.882665 -0.0047,0.241623 -0.872458,1.050722 -1.928458,1.797998 -2.278967,1.612706 -2.323811,1.995004 -0.517774,4.414099 1.618479,2.16787 2.622999,4.16848 3.071007,6.11624 0.355371,1.545014 0.387029,1.576029 2.192268,2.147756 2.782234,0.881145 5.692153,2.363764 6.956312,3.544278 0.624494,0.583172 0.839061,0.823303 0.476816,0.533623 -2.102435,-1.681273 -5.076895,-3.128963 -4.495273,-2.18788 0.110619,0.178985 -0.306715,0.08326 -0.92741,-0.212733 -0.620694,-0.295988 -1.040453,-0.680681 -0.932798,-0.854871 0.107656,-0.174191 0.03443,-0.217015 -0.16273,-0.09517 -0.197157,0.12185 -0.909928,-0.05979 -1.583934,-0.403641 l -1.225467,-0.625187 0.01449,0.849167 c 0.01306,0.765486 0.163319,0.870453 1.524741,1.065162 0.830638,0.118797 2.342638,0.610262 3.36,1.092145 1.017363,0.481882 2.02311,0.912731 2.234994,0.957441 0.418768,0.08837 3.294757,2.092004 3.294757,2.295385 0,0.174726 -0.694783,-0.240103 -1.361962,-0.813177 -0.309079,-0.265484 -0.655063,-0.389598 -0.768852,-0.275808 -0.11379,0.11379 0.182072,0.512848 0.65747,0.886796 0.475398,0.373948 1.721381,1.675662 2.768852,2.892698 1.04747,1.217035 1.904492,2.119462 1.904492,2.005393 0,-0.11407 0.216,-0.02813 0.48,0.190966 0.264,0.2191 0.48,0.278141 0.48,0.131203 0,-0.146939 -0.396,-0.604566 -0.88,-1.016949 -0.835315,-0.711715 -0.838562,-0.724771 -0.06395,-0.257117 0.44883,0.270969 1.14551,0.938283 1.548178,1.482922 0.402669,0.544638 0.802063,0.920313 0.887543,0.834834 0.367067,-0.367068 -0.981841,-2.196239 -3.017615,-4.092005 -2.221665,-2.068871 -3.4274,-3.502699 -2.135586,-2.53958 0.341785,0.254819 1.111067,0.902819 1.709516,1.44 0.761451,0.683495 1.026279,0.802441 0.882191,0.396231 -0.251389,-0.708712 2.001735,1.570007 2.561894,2.590996 0.220442,0.401794 0.262883,0.645295 0.09431,0.541114 -0.168568,-0.104181 -0.306488,-0.06967 -0.306488,0.0767 0,0.146364 0.468,0.522719 1.04,0.836345 0.572,0.313626 1.472,0.938176 2,1.387889 1.127326,0.960175 0.460383,0.658391 -1.04871,-0.474529 -1.071263,-0.80423 -1.748542,-0.762287 -1.061352,0.06573 0.283792,0.341948 0.287793,0.516935 0.01567,0.685119 -0.240312,0.148521 0.05573,0.682401 0.864461,1.558942 0.676464,0.733187 0.105839,0.196459 -1.268057,-1.192728 -1.373895,-1.389187 -2.565209,-2.458577 -2.647364,-2.376422 -0.08216,0.08216 0.499535,1.358059 1.292645,2.835342 0.793109,1.477282 1.437507,2.901968 1.431994,3.165968 -0.0055,0.264 -0.759107,-0.993641 -1.674653,-2.794758 -1.806021,-3.552912 -3.310308,-5.49189 -6.793207,-8.756228 -1.612769,-1.511564 -2.792029,-2.312915 -4.152993,-2.822117 -2.556023,-0.956331 -5.321261,-0.985343 -7.105682,-0.07455 -0.740989,0.37821 -1.519514,0.687655 -1.730057,0.687655 -0.892062,0 -6.859266,3.329188 -8.74294,4.877811 -1.125376,0.925204 -2.3822009,1.927775 -2.7929448,2.227937 l -0.746807,0.545748 0.96,0.0151 c 1.3451128,0.02116 5.7569158,2.929812 6.4361278,4.243264 0.450914,0.87197 0.497522,1.650435 0.31245,5.218599 -0.250275,4.82528 -0.07808,5.551567 1.705993,7.195407 1.674277,1.542677 2.147758,3.66398 1.470055,6.586178 -0.492062,2.121731 -1.463598,4.342715 -2.331505,5.329951 C 16.25456,83.801604 14.338442,83.989728 12.8,83.664185 Z m 3.961759,-1.185608 c 0.951211,-1.247102 1.398271,-2.330153 2.001562,-4.849003 0.395301,-1.650454 0.391927,-2.099737 -0.02658,-3.539363 -0.302089,-1.03915 -0.847815,-1.977236 -1.475704,-2.536687 -1.709814,-1.523451 -1.968405,-2.607519 -1.718518,-7.204376 0.276149,-5.079954 0.08877,-5.527176 -3.221009,-7.687825 -3.2515422,-2.12263 -5.0391148,-2.33232 -7.9190093,-0.928936 -0.4826268,0.235186 -0.8786269,0.549381 -0.88,0.698212 -0.00137,0.148831 -0.2735302,0.652831 -0.6047934,1.12 l -0.6022969,0.849398 1.2161013,0.04644 c 2.8676328,0.109494 4.0932849,1.947442 3.4940621,5.23958 -0.9512867,5.226382 -0.8439749,5.966 1.1830684,8.153985 2.2362168,2.413765 2.4675378,3.192291 2.2071468,7.428282 -0.246613,4.011849 -0.414777,3.706702 2.224215,4.036025 2.81,0.350664 3.299239,0.252653 4.121759,-0.825727 z M 12.609596,80.892556 12,80.185115 l 0.832378,0.523614 c 0.457807,0.287988 1.321807,0.583291 1.92,0.656229 1.03904,0.126691 1.029089,0.134902 -0.222782,0.183827 -0.995636,0.03891 -1.456833,-0.11872 -1.92,-0.656229 z m 1.474025,-3.288197 c -0.221092,-0.266399 -0.780353,-0.503973 -1.242803,-0.527941 -0.790575,-0.04097 -0.796218,-0.05207 -0.09443,-0.185714 0.419747,-0.07993 0.998293,0.08583 1.321999,0.378784 0.373895,0.33837 1.034432,0.493847 1.884896,0.443666 0.720108,-0.04249 1.38633,-2.1e-4 1.480494,0.09395 0.09416,0.09416 -0.530652,0.196049 -1.388482,0.226411 -1.056613,0.0374 -1.68935,-0.101028 -1.961675,-0.42916 z M 11.33087,72.914841 10.72,72.226871 l 0.8,0.427295 c 1.028897,0.549553 3.308485,0.68974 4.416288,0.271587 0.693173,-0.261647 0.785054,-0.246545 0.465338,0.07649 -0.219106,0.221378 -1.312215,0.44707 -2.429131,0.501538 -1.747484,0.08522 -2.115967,0.0031 -2.641625,-0.588937 z m 0.01964,-4.450196 c -0.121924,-0.197278 -0.821409,-0.266751 -1.6988856,-0.168736 -1.3964223,0.155982 -1.4201415,0.146774 -0.3716262,-0.144267 0.7604088,-0.21107 1.4889798,-0.197199 2.2692398,0.0432 0.937352,0.288802 1.350346,0.256314 2.24,-0.17621 L 14.88,67.48834 14.124549,68.144169 c -0.800475,0.694915 -2.426522,0.882767 -2.774037,0.320476 z M 9.69317,64.697517 c -0.1935193,-0.119636 0.598764,-0.257934 1.76063,-0.307328 1.161866,-0.0494 2.04807,-0.03357 1.969342,0.03516 -0.292793,0.255628 -3.391037,0.481697 -3.729972,0.272164 z M 9.608552,60.583696 c 0.843054,-0.709383 1.119554,-0.792664 1.611561,-0.485401 0.326647,0.203994 1.06775,0.301818 1.646896,0.217385 L 13.92,60.162166 12.803243,60.510121 c -0.777109,0.242128 -1.27885,0.246726 -1.649717,0.01512 -0.403793,-0.252173 -0.707272,-0.181657 -1.2522054,0.290961 -0.3955856,0.34309 -0.8522617,0.623799 -1.0148356,0.623799 -0.162574,0 0.1623563,-0.385335 0.7220671,-0.856301 z m -2.8956253,-3.11852 c 0.4784261,-0.51991 1.0177201,-0.802896 1.3596813,-0.713471 0.3117151,0.08151 0.6473965,0.01773 0.7459588,-0.141749 0.098562,-0.159477 0.3507057,-0.285379 0.5603187,-0.279781 0.209613,0.0056 0.097246,0.224774 -0.2497034,0.487061 -0.3469499,0.262286 -0.8103383,0.407995 -1.029752,0.323798 -0.2194137,-0.0842 -0.4835655,-0.01615 -0.587004,0.151218 -0.1034384,0.167367 -0.50405,0.468622 -0.890248,0.669454 -0.657414,0.341872 -0.6516288,0.310218 0.090749,-0.49653 z M 3.1855006,59.057468 C 3.5287539,58.643873 3.514682,58.559997 3.1020395,58.559997 2.5519123,58.559997 1.6,59.392814 1.6,59.874113 c 0,0.391691 1.0177146,-0.132505 1.5855006,-0.816645 z m 38.0945004,-5.08169 c 0,-0.05732 -0.396,-0.453321 -0.88,-0.88 l -0.88,-0.77578 0.77578,0.88 c 0.725084,0.822492 0.98422,1.026748 0.98422,0.77578 z m -7.68,-5.484521 c 0,-0.08181 -0.324,-0.321384 -0.72,-0.532391 -0.652871,-0.347879 -0.679053,-0.334012 -0.280818,0.148742 0.408904,0.495686 1.000818,0.722587 1.000818,0.383649 z M 8.5214532,38.438301 c 0.6206298,-0.725067 0.9779969,-1.318303 0.7941491,-1.318303 -0.424371,0 -2.4545771,2.018567 -2.9372057,2.920367 -0.3485885,0.651343 -0.3335835,0.66057 0.3245771,0.199576 0.3795339,-0.265836 1.1978497,-1.076574 1.8184795,-1.80164 z m 3.9012638,-0.841783 c 1.468941,-0.509237 2.126929,-0.819361 4.697283,-2.213933 2.994381,-1.624631 3.37254,-2.041893 2.746564,-3.030562 -0.234531,-0.37042 -0.430715,-0.332282 -1.133205,0.220297 -0.467264,0.367549 -1.597423,0.912821 -2.511464,1.211714 -1.95615,0.639665 -4.054553,1.803862 -4.86448,2.698821 -0.635635,0.702369 -1.289136,0.869908 -0.924996,0.237143 0.133739,-0.232398 0.108132,-0.288265 -0.06111,-0.133333 C 10.211087,36.733332 10.08,36.971822 10.08,37.116644 c 0,0.144822 -0.5426334,0.790311 -1.2058522,1.434421 -1.6220575,1.575322 -1.1954544,2.043586 0.6075545,0.666886 0.7940527,-0.606304 2.1175087,-1.335949 2.9410147,-1.621433 z m 9.55439,0.563831 C 23.160402,37.947647 23.268422,37.857831 22.91614,37.37957 22.544444,36.874951 22.365726,36.883581 20.219034,37.509798 18.954565,37.87866 17.92,38.32058 17.92,38.491844 c 0,0.300627 0.990966,0.219658 4.057107,-0.331495 z m -0.899065,-6.269793 c 0.196023,-0.236194 0.291834,-0.494016 0.212912,-0.572937 -0.07892,-0.07892 0.131342,-0.164197 0.467253,-0.1895 0.684819,-0.05159 2.561794,-1.340778 2.561794,-1.759558 0,-0.149094 -0.290977,-0.115354 -0.646614,0.07498 -0.355637,0.190331 -0.762994,0.27413 -0.905238,0.186218 C 22.397946,29.400958 20.16,31.317467 20.16,31.863296 c 0,0.575197 0.452152,0.588623 0.918042,0.02726 z m 23.081959,-1.611375 c 0,-0.06645 -0.252,-0.31845 -0.56,-0.56 -0.507538,-0.398039 -0.518856,-0.38672 -0.120818,0.120818 0.418039,0.533039 0.680818,0.702553 0.680818,0.439182 z M 20.961054,23.041704 c -0.08733,-0.141297 0.12555,-0.883484 0.473058,-1.649304 0.347508,-0.765821 0.622008,-1.752401 0.61,-2.192401 -0.01869,-0.684804 -0.06638,-0.645192 -0.331214,0.275091 -0.17016,0.5913 -0.367672,1.016801 -0.438915,0.945558 -0.07124,-0.07124 0.212239,-1.371761 0.629959,-2.89004 0.417721,-1.51828 0.69246,-2.827541 0.610531,-2.909469 -0.08193,-0.08193 0.146261,-0.633201 0.507087,-1.22505 0.360827,-0.591849 0.65341,-1.36409 0.650185,-1.71609 -0.0038,-0.419065 -0.343797,-0.0603 -0.984788,1.039256 -0.983333,1.686819 -1.446111,3.640828 -2.216949,9.360744 -0.201606,1.496 -0.426065,3.008 -0.498797,3.36 -0.07273,0.352 0.155953,0.01419 0.508189,-0.750696 0.352236,-0.764882 0.568981,-1.506302 0.481654,-1.647599 z m 0.995977,-0.462373 c -0.343414,-0.661932 -0.479937,-0.737558 -0.629214,-0.34855 -0.104852,0.273241 -0.02418,0.862149 0.179279,1.308685 0.291186,0.639085 0.425106,0.713269 0.629213,0.348549 0.150868,-0.269585 0.0759,-0.816827 -0.179278,-1.308684 z M 21.620574,23.1338 c -0.173659,-0.456064 -0.136903,-0.49282 0.179135,-0.179134 0.218693,0.217066 0.317014,0.475277 0.21849,0.573801 -0.09852,0.09852 -0.277455,-0.07908 -0.397625,-0.394667 z m 2.045922,-1.869369 c 0.260543,-0.684553 0.694167,-1.47773 0.963609,-1.762616 0.269443,-0.284886 0.675263,-0.793339 0.901822,-1.129895 0.22656,-0.336557 0.312311,-0.409672 0.190558,-0.162478 -0.145504,0.295413 -0.09297,0.370086 0.153293,0.217888 0.206064,-0.127354 0.302417,-0.34845 0.214116,-0.491322 -0.0883,-0.142873 0.274617,-0.807349 0.806482,-1.476614 0.531865,-0.669265 0.890315,-1.416753 0.796557,-1.661085 -0.09376,-0.244331 0.169919,-0.901905 0.585951,-1.461274 1.605036,-2.158026 1.909446,-2.954702 0.540575,-1.414747 -0.744242,0.837259 -1.507332,1.42701 -1.695755,1.310557 -0.194002,-0.119899 -0.250118,-0.06211 -0.129384,0.133242 0.117263,0.189736 -0.217889,0.65194 -0.744782,1.027121 -1.284289,0.914495 -3.232453,4.45658 -3.348689,6.088473 -0.05079,0.713065 -0.204943,1.400395 -0.342562,1.5274 -0.137619,0.127005 -0.16,-0.273082 -0.04973,-0.889082 0.158703,-0.886601 0.128922,-0.99847 -0.142908,-0.53682 -0.418522,0.710777 -0.0908,2.231874 0.44255,2.054089 0.211524,-0.07051 0.59776,-0.688285 0.858302,-1.372837 z m 1.933505,-5.060851 c 0,-0.088 0.432,-0.467612 0.96,-0.843581 0.528,-0.375969 0.96,-0.61158 0.96,-0.52358 0,0.088 -0.432,0.467611 -0.96,0.84358 -0.528,0.375969 -0.96,0.611581 -0.96,0.523581 z m 16.637535,5.636419 c -0.0014,-0.132 -0.613355,-0.585308 -1.36,-1.007352 l -1.357535,-0.767352 0.64,0.725121 c 0.352,0.398817 0.928,0.842998 1.28,0.987069 0.835398,0.341922 0.800376,0.339177 0.797535,0.06251 z M 22.398487,18.012056 c -0.348674,-0.543773 -0.357705,-0.543075 -0.182648,0.01412 0.101289,0.322395 0.19553,0.754395 0.209425,0.96 0.01823,0.269811 0.06906,0.265883 0.182648,-0.01412 0.08656,-0.213369 -0.0077,-0.645369 -0.209425,-0.959999 z m 0.959002,-0.573609 c 0.144554,0.08934 0.187884,-0.124144 0.09629,-0.474407 -0.0916,-0.350263 -0.292517,-0.558983 -0.446492,-0.463821 -0.153975,0.09516 -0.192573,-0.05469 -0.08577,-0.333004 0.172371,-0.449192 0.246506,-0.442073 0.660065,0.06338 0.256237,0.313173 0.374708,0.389405 0.263269,0.169405 -0.111438,-0.22 -0.08612,-0.40091 0.05627,-0.402023 0.142387,-0.0011 0.509542,-0.442441 0.8159,-0.980731 0.306358,-0.538289 0.686042,-0.898964 0.843742,-0.8015 0.1577,0.09746 0.483043,-0.07321 0.722985,-0.379269 0.394784,-0.503573 0.38302,-0.514724 -0.123741,-0.117294 -0.749422,0.587737 -0.709413,0.171711 0.08,-0.831864 0.352,-0.447495 0.64,-1.010208 0.64,-1.250473 0,-0.240265 0.15777,-0.436845 0.350601,-0.436845 0.47878,0 2.209399,-1.2565531 2.209399,-1.6041813 0,-0.1543303 -0.776619,0.062857 -1.725819,0.4826383 -0.9492,0.419781 -1.8252,0.663857 -1.946667,0.542391 -0.121466,-0.121467 -0.18649,-0.07685 -0.144498,0.09915 0.123011,0.515564 -2.005483,4.959164 -2.290943,4.78274 -0.429492,-0.265441 -0.913675,0.978493 -0.69956,1.797271 0.10981,0.419915 0.258716,0.586299 0.330902,0.369741 0.07219,-0.216557 0.249519,-0.320644 0.394073,-0.231305 z m 6.082512,-3.369706 c 0,-0.454605 -0.153177,-0.384911 -0.830404,0.377821 -0.606328,0.682882 -0.605736,0.684538 0.110404,0.308741 0.396,-0.207801 0.72,-0.516755 0.72,-0.686562 z m -4.997902,-3.365362 c 0.109279,-0.284776 0.05563,-0.413223 -0.125764,-0.301114 -0.173984,0.107528 -0.316334,0.331007 -0.316334,0.49662 0,0.460298 0.229365,0.358868 0.442098,-0.195506 z M 37.760001,8.9408208 c 0.264,-0.024539 0.12,-0.1703608 -0.32,-0.3240483 -0.526514,-0.183906 -0.06159,-0.2189916 1.36,-0.1026323 2.177659,0.178245 2.626807,-0.04836 1.669916,-0.8425097 -0.603347,-0.5007328 -5.469639,-0.7651293 -5.749453,-0.3123806 -0.200978,0.3251901 0.122413,0.4176318 1.279537,0.3657567 0.46112,-0.020673 0.39404,0.065921 -0.24,0.3098172 -0.484,0.1861801 -0.88,0.4599505 -0.88,0.6083788 0,0.1484282 -0.252,0.3266144 -0.56,0.3959692 -0.478107,0.1076591 1.979632,0.037391 3.44,-0.098351 z m -6.4,-0.8150576 c 0,-0.06917 -0.216,-0.1257635 -0.48,-0.1257635 -0.264,0 -0.48,0.1394805 -0.48,0.3099568 0,0.1704763 0.216,0.2270699 0.48,0.1257636 0.264,-0.1013063 0.48,-0.2407869 0.48,-0.3099569 z m 3.36,0.1942364 c 0.236107,-0.3820301 -0.390968,-0.3820301 -1.28,0 -0.571467,0.2455677 -0.547789,0.2774259 0.221114,0.2975087 0.473613,0.01237 0.950112,-0.1215087 1.058886,-0.2975087 z M 30.626919,5.4050817 C 30.822124,5.2098768 31.43137,5.0148008 31.9808,4.9715795 c 0.549429,-0.043221 1.342545,-0.4013631 1.762479,-0.7958705 0.622284,-0.5846054 0.872024,-0.6495723 1.350119,-0.3512179 0.533838,0.3331407 0.524262,0.3491311 -0.106467,0.1777718 -0.38803,-0.1054218 -0.797351,-0.019566 -0.930003,0.1950695 -0.179424,0.2903134 0.144146,0.3219272 1.33307,0.1302453 0.863501,-0.1392164 1.870003,-0.2698736 2.236669,-0.2903493 0.366667,-0.020476 0.666667,-0.2172286 0.666667,-0.4372286 0,-0.4950423 -0.278141,-0.5025523 -1.303857,-0.035205 -0.614413,0.2799451 -1.034614,0.267879 -1.806571,-0.051876 L 34.176974,3.0962483 34.928487,2.6794635 c 1.087036,-0.6028639 0.428079,-0.5351177 -0.784377,0.08064 -1.366396,0.6939376 -4.704109,2.7412053 -4.704109,2.8853795 0,0.2617971 0.858628,0.087888 1.186918,-0.2404013 z m 3.293082,-0.6050819 c 0,-0.176 -0.0635,-0.32 -0.141115,-0.32 -0.07761,0 -0.230111,0.144 -0.338885,0.32 -0.108774,0.176 -0.04527,0.32 0.141114,0.32 0.186387,0 0.338886,-0.144 0.338886,-0.32 z m 3.52,-0.32 c 0.264,-0.1706099 0.336,-0.3101998 0.16,-0.3101998 -0.176,0 -0.536,0.1395899 -0.8,0.3101998 -0.264,0.1706099 -0.336,0.3101998 -0.16,0.3101998 0.176,0 0.536,-0.1395899 0.8,-0.3101998 z m 8.710641,49.7414592 c -0.39147,-0.274196 -0.831456,-0.424565 -0.977746,-0.334152 -0.146291,0.09041 -0.821979,-0.213423 -1.50153,-0.67519 -0.810794,-0.550949 -1.278967,-0.709313 -1.361851,-0.460661 -0.06947,0.208403 -0.437527,-0.07498 -0.81791,-0.629752 -0.396906,-0.578866 -1.613115,-1.48899 -2.854225,-2.135899 -1.189442,-0.619977 -2.102824,-1.187029 -2.029738,-1.260115 0.07309,-0.07309 0.542265,0.07317 1.042621,0.32501 0.500356,0.251842 1.400904,0.551493 2.001218,0.665892 0.600314,0.114399 1.271321,0.464757 1.491127,0.778574 0.219806,0.313817 1.63664,1.32648 3.14852,2.250363 1.51188,0.923883 2.748873,1.746091 2.748873,1.827128 0,0.232201 -0.129386,0.181108 -0.889359,-0.351198 z m -1.030641,-0.610203 c 0,-0.08181 -0.324,-0.305751 -0.72,-0.497653 -0.6914,-0.335052 -0.695326,-0.329144 -0.09884,0.148741 0.652884,0.523069 0.818839,0.593783 0.818839,0.348912 z m -3.84,-2.532076 c 0,-0.06645 -0.252,-0.31845 -0.56,-0.56 -0.507538,-0.398038 -0.518856,-0.38672 -0.120818,0.120818 0.418038,0.533039 0.680818,0.702553 0.680818,0.439182 z m 4.8,0.229413 c -1.144,-0.638846 -2.340471,-1.38661 -2.658825,-1.661698 -0.318353,-0.275089 -1.024213,-0.466224 -1.568578,-0.424745 -1.335978,0.101798 -3.08377,-0.510977 -4.072565,-1.427839 -0.994998,-0.922615 -1.440428,-0.974571 -0.980032,-0.114313 0.48112,0.898981 0.314888,0.824721 -1.75933,-0.785944 -1.009983,-0.784269 -1.927309,-1.46965 -2.038502,-1.523069 -0.111193,-0.05342 -0.634168,-0.599221 -1.162168,-1.212893 -0.771142,-0.896266 -0.802618,-0.981981 -0.16,-0.435704 1.175112,0.998941 5.76,3.42925 5.76,3.0532 0,-0.177241 -0.108,-0.382656 -0.24,-0.456477 -0.132,-0.07382 -0.04822,-0.08582 0.186172,-0.02667 0.234394,0.05915 1.314394,0.131025 2.4,0.159713 l 1.973828,0.05216 -1.76,0.20025 -1.76,0.20025 1.28,0.2489 c 2.207663,0.429286 2.263466,0.451163 1.247751,0.489161 -0.545736,0.02042 -1.453087,-0.123528 -2.016335,-0.319877 -1.448516,-0.504956 -1.549992,-0.162648 -0.199256,0.672152 1.401747,0.866328 3.935801,1.308909 3.512959,0.61355 -0.150069,-0.246787 0.223887,-0.07538 0.831014,0.380917 0.607127,0.456291 2.183867,1.426387 3.503867,2.155769 1.32,0.729382 2.256,1.325832 2.08,1.325445 -0.176,-3.87e-4 -1.256,-0.523395 -2.4,-1.16224 z m -9.706667,-4.094519 c 0,-0.256258 -0.11005,-0.397909 -0.244555,-0.31478 -0.134505,0.08313 -0.334525,0.0056 -0.444489,-0.172355 -0.109963,-0.177925 -0.515913,-0.477505 -0.902111,-0.665734 -0.411707,-0.200662 -0.238865,0.05982 0.417822,0.629671 0.616,0.534548 1.132,0.975779 1.146666,0.980514 0.01467,0.0047 0.02667,-0.201058 0.02667,-0.457316 z m 9.059341,1.481389 c -0.97203,-0.470506 -2.19603,-1.030041 -2.720001,-1.243411 -0.753988,-0.307037 -0.785829,-0.35156 -0.152673,-0.213482 0.917009,0.19998 5.44479,2.309972 4.96,2.31141 -0.176,5.22e-4 -1.115297,-0.384011 -2.087326,-0.854517 z m -0.20029,-2.159211 c -1.730598,-1.15706 -3.219856,-2.184565 -3.309463,-2.283345 -0.374089,-0.412386 1.489046,0.70772 3.936569,2.366643 2.873556,1.947686 2.970909,2.020448 2.703306,2.020448 -0.101129,0 -1.599814,-0.946686 -3.330412,-2.103746 z m -1.613323,-2.016935 c -1.12267,-0.761068 -1.591457,-0.887869 -2.88,-0.779002 -0.846484,0.07152 -2.187061,-0.0083 -2.979061,-0.177468 -1.246782,-0.26624 -1.083932,-0.290876 1.213672,-0.183609 1.796122,0.08385 2.586739,0.01559 2.446548,-0.211244 -0.26623,-0.43077 2.012468,0.771221 3.05978,1.614005 1.160276,0.933686 0.693986,0.791416 -0.860939,-0.262682 z M 33.606953,43.945709 c -1.376723,-0.738747 -2.317226,-1.050809 -2.8,-0.929052 -1.955082,0.493081 -2.467706,0.570188 -2.251926,0.338728 0.129264,-0.138658 -0.01474,-0.454288 -0.32,-0.701399 -0.501063,-0.405611 -0.487069,-0.416466 0.143936,-0.111641 0.38443,0.185709 1.014062,0.337653 1.399183,0.337653 0.615693,0 0.647204,-0.06427 0.261037,-0.53239 -0.402311,-0.487694 -0.372018,-0.496587 0.360818,-0.105927 0.44,0.234555 0.838493,0.396495 0.885539,0.359867 0.141512,-0.110174 2.715699,1.092113 3.914461,1.828269 1.733468,1.064517 0.717718,0.755843 -1.593048,-0.484108 z m 5.040491,-1.117325 c -0.224094,-0.142222 -0.750931,-0.260791 -1.170749,-0.263486 -0.419818,-0.0027 -1.0681,-0.3289 -1.440628,-0.7249 -0.372528,-0.396 -1.03704,-0.969002 -1.476695,-1.273339 -0.615322,-0.425937 -0.652016,-0.50719 -0.159371,-0.352903 1.272899,0.398649 7.18e-4,-0.427712 -1.52,-0.987333 -0.836,-0.307647 -1.52,-0.673448 -1.52,-0.812891 0,-0.139444 -0.432,-0.339934 -0.96,-0.445534 -0.528,-0.1056 -0.96,-0.34082 -0.96,-0.522711 0,-0.211451 0.201946,-0.226753 0.56,-0.04243 0.308,0.158554 0.92,0.446729 1.36,0.640389 0.44,0.193661 1.016,0.491892 1.28,0.662737 0.264,0.170845 1.128,0.598632 1.92,0.950638 0.792,0.352006 1.172771,0.645268 0.846158,0.651695 -0.482784,0.0095 -0.396814,0.195737 0.459696,0.995836 0.925127,0.864199 1.299418,0.990959 3.070863,1.04 1.109529,0.03072 2.018666,0.147505 2.020305,0.259529 0.0048,0.326669 -1.862642,0.508356 -2.309579,0.224706 z m 5.992557,-1.132294 c -1.232,-0.633837 -2.744,-1.18852 -3.36,-1.23263 l -1.12,-0.0802 1.04,0.506425 c 1.07175,0.521886 1.478326,1.268709 0.48,0.881693 -0.308,-0.119401 -1.28,-0.41621 -2.16,-0.659575 -3.315219,-0.916829 -3.124467,-0.816228 -2.487455,-1.311862 0.531271,-0.413361 0.526645,-0.428011 -0.07255,-0.229744 -0.352,0.116474 -0.534239,0.09507 -0.404974,-0.04757 0.129264,-0.142639 -0.01474,-0.447328 -0.32,-0.677085 -0.305265,-0.229758 0.308974,-0.08146 1.364974,0.329545 2.316548,0.901627 4.121126,1.279786 3.825643,0.801685 -0.113394,-0.183476 1.103448,0.324137 2.704093,1.12803 1.600645,0.803892 2.910264,1.532177 2.910264,1.618411 0,0.215966 0.09639,0.257217 -2.4,-1.02712 z m -5.894245,-1.7297 c -0.425835,-0.168246 -0.886153,-0.193512 -1.02293,-0.05615 -0.136776,0.137366 0.211635,0.275021 0.774246,0.305901 0.960216,0.0527 0.975462,0.03739 0.248684,-0.249754 z m -5.643597,1.825163 c -0.352135,-0.246645 -0.996175,-0.515035 -1.431202,-0.596422 l -0.790956,-0.147976 0.8,-0.03646 c 0.44,-0.02005 1.16,0.245133 1.6,0.589306 0.917668,0.71781 0.782048,0.863888 -0.177842,0.191555 z m -7.040997,-0.965432 c 0.60935,-0.496498 0.607828,-0.506123 -0.08,-0.506123 -0.617833,0 -1.071048,-0.633265 -0.461161,-0.644369 0.132,-0.0024 0.6,-0.07736 1.04,-0.166568 0.697222,-0.141361 0.717778,-0.123134 0.16,0.141878 -0.556976,0.26463 -0.508482,0.306994 0.373828,0.326568 1.245007,0.02762 2.082322,-0.26777 1.845448,-0.65104 -0.09738,-0.157558 -0.08832,-0.286469 0.02014,-0.286469 0.555259,0 3.239796,0.762539 3.493366,0.992286 0.161028,0.145899 -0.244398,0.11695 -0.900947,-0.06433 -0.656549,-0.181282 -1.630532,-0.233665 -2.164406,-0.116406 -1.003428,0.220389 -0.905326,0.620805 0.212575,0.86765 0.352,0.07773 -0.152,0.129938 -1.12,0.116028 -0.968,-0.01391 -2.048,0.09223 -2.4,0.235865 -0.630585,0.257313 -0.630862,0.253709 -0.01884,-0.244968 z m 17.634789,-1.735868 c -0.233347,-0.735211 -2.664908,-2.329162 -5.521543,-3.619515 -1.195924,-0.540203 -2.289563,-1.182111 -2.430308,-1.426463 -0.319203,-0.554177 -0.827799,-0.58279 -0.748443,-0.04211 0.191881,1.30737 2.59193,3.099339 4.204344,3.139124 0.528,0.01303 1.248,0.143269 1.6,0.289423 0.441994,0.18352 0.194487,0.236696 -0.8,0.171877 -0.792,-0.05162 -2.074319,-0.384239 -2.849598,-0.73915 -0.775279,-0.354911 -1.611664,-0.567753 -1.858634,-0.472982 -0.748934,0.287393 3.152055,1.739572 4.68164,1.742783 0.958472,0.002 1.267469,0.09534 0.96,0.289961 -0.371443,0.235112 -0.355588,0.287879 0.08771,0.291893 0.297613,0.0027 0.645236,0.173371 0.772495,0.379281 0.164124,0.265558 0.05334,0.298144 -0.381115,0.112107 -0.336872,-0.14425 -2.052494,-0.523677 -3.812494,-0.84317 -1.76,-0.319494 -2.516,-0.516697 -1.68,-0.438229 0.836,0.07847 1.52,0.08499 1.52,0.01451 0,-0.07049 -0.756,-0.374942 -1.68,-0.676562 -0.924,-0.301621 -1.968,-0.709194 -2.32,-0.905718 -0.352,-0.196523 -1.648,-0.525745 -2.88,-0.731604 l -2.24,-0.374288 2.08,0.103635 c 1.144,0.057 2.485374,0.261429 2.980832,0.454288 1.153309,0.448931 1.81739,0.45163 1.179168,0.0048 -0.375755,-0.263077 -0.323632,-0.292078 0.24,-0.133536 1.042324,0.293192 0.885533,-0.21629 -0.423115,-1.374879 -0.628713,-0.55662 -1.068092,-1.133426 -0.976397,-1.281791 0.298833,-0.483523 -3.775843,-2.926017 -4.626504,-2.773277 -0.425691,0.07644 -0.117458,-0.0753 0.684963,-0.337197 0.80242,-0.261893 2.00852,-0.979559 2.680221,-1.594813 0.671701,-0.615254 1.383175,-1.116439 1.581053,-1.113744 0.220764,0.003 0.198057,0.107466 -0.05877,0.270347 -0.325657,0.206536 -0.187327,0.684823 0.623298,2.1551 1.004468,1.821861 1.162983,1.950251 4.418546,3.578799 2.874127,1.43774 3.494348,1.856065 1.633175,1.101541 -0.643171,-0.260744 0.664339,1.528473 2.413732,3.302988 0.775387,0.786522 1.409795,1.573204 1.409795,1.748182 0,0.51732 -0.2624,0.36374 -0.46405,-0.271603 z m -3.37595,-3.890255 c -0.375969,-0.528 -0.565775,-0.966986 -0.42179,-0.975526 0.295174,-0.01751 -3.765009,-2.184803 -4.13821,-2.208947 -0.958608,-0.06202 0.981147,1.465209 2.48,1.952576 0.577639,0.187825 0.582452,0.21121 0.0494,0.24 -0.32483,0.01754 -1.00883,-0.265908 -1.52,-0.629893 -0.511169,-0.363984 -0.930757,-0.543984 -0.932419,-0.4 -0.0017,0.143985 -0.582791,-0.926209 -1.291401,-2.378209 -0.708609,-1.452 -1.42393,-2.64 -1.589602,-2.64 -0.165673,0 -0.528121,0.346291 -0.805442,0.769536 -0.277321,0.423246 -0.864211,0.859889 -1.3042,0.970319 -0.762059,0.191265 -0.719706,0.254803 0.893487,1.340402 0.931407,0.62679 2.054978,1.347408 2.496823,1.601371 l 0.803356,0.461753 -0.8,-0.168737 c -0.44,-0.0928 -0.619103,-0.08577 -0.398007,0.01564 0.221097,0.101407 0.31172,0.330445 0.201384,0.508972 -0.120476,0.194933 0.06529,0.18229 0.465043,-0.03165 0.815261,-0.436314 1.278361,-0.354169 2.099425,0.372396 0.348059,0.308 0.804049,0.559999 1.013312,0.559999 0.209263,0 0.56022,0.216576 0.779904,0.481279 0.331623,0.399582 0.82594,0.615014 2.500729,1.089861 0.05598,0.01587 -0.205821,-0.40314 -0.58179,-0.93114 z m 4.898621,2.856861 c -1.022242,-0.892726 -2.027666,-2.080726 -2.234276,-2.64 -0.518647,-1.403926 -0.504319,-1.641598 0.07022,-1.164774 0.272009,0.225748 0.429738,0.57938 0.350509,0.785849 -0.07923,0.206469 0.05822,0.375398 0.305437,0.375398 0.640671,0 0.572759,-0.230036 -0.540347,-1.830293 -0.817064,-1.174652 -0.842051,-1.255474 -0.14315,-0.46304 1.193559,1.353292 1.771933,2.534666 1.622019,3.313106 -0.09255,0.480581 0.282408,1.029874 1.33621,1.957468 0.805676,0.709184 1.38097,1.289425 1.278433,1.289425 -0.102537,0 -1.022811,-0.730412 -2.045053,-1.623139 z m -0.875764,-1.843527 c 0,-0.322667 -0.185143,-0.586667 -0.411429,-0.586667 -0.434708,0 -0.558445,0.599649 -0.198095,0.96 0.374493,0.374493 0.609524,0.230537 0.609524,-0.373333 z m -18.262857,2.186666 c 0.645496,-0.277379 0.307788,-0.432603 -0.8,-0.367711 -0.264,0.01546 -0.0041,-0.187103 0.577511,-0.450149 0.581631,-0.263046 1.182576,-0.400971 1.335433,-0.3065 0.152857,0.09447 0.828977,-0.14568 1.502489,-0.533669 l 1.224567,-0.705434 -0.64,0.735783 c -0.695369,0.799437 -2.763808,1.961341 -3.427252,1.925189 -0.227012,-0.01237 -0.124748,-0.146249 0.227252,-0.297509 z m 0.05477,-2.055554 c 0.171174,-0.487044 0.104531,-0.570553 -0.319215,-0.4 -1.490919,0.600078 -1.552579,0.558279 -0.375554,-0.254583 1.676472,-1.157784 1.749501,-1.248882 0.8,-0.997925 -0.766254,0.202525 -0.762559,0.190104 0.08759,-0.294442 0.488173,-0.278238 1.024106,-0.421514 1.190961,-0.318392 0.166855,0.103122 0.667441,-0.05105 1.112412,-0.342607 0.575011,-0.376762 0.809039,-0.414853 0.809039,-0.131683 0,0.281158 0.411573,0.35203 1.398397,0.2408 1.465336,-0.165164 2.444991,0.160604 2.436703,0.810287 -0.0035,0.275929 -0.07111,0.283074 -0.24,0.02537 -0.129305,-0.197301 -1.1711,-0.428447 -2.3151,-0.513656 -1.691484,-0.125989 -2.241673,-0.04189 -2.945545,0.450226 -0.587168,0.410523 -0.802337,0.781563 -0.669015,1.153656 0.108092,0.301676 0.07982,0.442741 -0.06281,0.313476 -0.14264,-0.129264 -0.453937,0.01474 -0.691771,0.32 -0.401916,0.515866 -0.417162,0.511596 -0.216086,-0.06053 z m -2.965176,-2.241428 c 0.456723,-0.77934 0.830407,-1.505653 0.830407,-1.614028 0,-0.406959 -1.142312,0.01534 -1.706862,0.631011 -0.322774,0.352 -0.118363,-0.044 0.454246,-0.88 1.095094,-1.598819 1.362267,-1.858092 1.034479,-1.00389 -0.12127,0.316024 0.447274,0.06252 1.46652,-0.653887 1.496709,-1.052013 1.610792,-1.087924 1.13129,-0.356111 -0.614739,0.938211 -0.297067,1.048524 0.8022,0.278567 0.420353,-0.294427 0.65253,-0.354509 0.515949,-0.133517 -0.13658,0.220992 -0.862583,0.665104 -1.613339,0.986916 -1.067429,0.457553 -1.588079,0.974996 -2.388232,2.373516 -0.562772,0.983623 -1.098336,1.788405 -1.190144,1.788405 -0.09181,0 0.206762,-0.637642 0.663486,-1.416982 z m 1.950407,-0.653099 c 0.528,-0.432796 1.095976,-0.792081 1.262169,-0.79841 0.166193,-0.0063 -0.185783,0.348492 -0.782169,0.788492 -1.394757,1.029019 -1.731772,1.035983 -0.48,0.0099 z m 15.68,-0.511625 c -0.528,-0.338208 -1.392,-0.617887 -1.92,-0.621509 -0.737783,-0.0051 -0.848892,-0.07839 -0.48,-0.316784 0.264,-0.17061 0.327522,-0.312405 0.141161,-0.3151 -0.186361,-0.0027 -0.618361,-0.234352 -0.96,-0.514792 -0.403872,-0.331526 -0.226046,-0.29388 0.508348,0.107617 0.62123,0.33963 1.517394,0.714862 1.991476,0.833849 1.310683,0.328961 0.797237,-0.546952 -0.72227,-1.232154 -0.683973,-0.308428 -1.575491,-0.931563 -1.981151,-1.384743 l -0.737564,-0.823963 0.997486,0.808211 c 0.548617,0.444515 1.454968,0.997705 2.014113,1.229311 0.649528,0.269043 1.232145,0.867172 1.613474,1.656432 0.328266,0.679432 0.573915,1.224805 0.545887,1.21194 -0.02803,-0.01287 -0.48296,-0.300107 -1.01096,-0.638315 z m -10.72,-0.02032 c -0.44,-0.176804 -1.196,-0.243277 -1.68,-0.147716 -1.215359,0.239958 -1.102418,0.04667 0.409947,-0.701588 0.767286,-0.379623 1.14463,-0.463118 0.931299,-0.20607 -0.28256,0.340465 -0.131921,0.53112 0.710052,0.898671 1.197214,0.522625 0.876349,0.658043 -0.371298,0.156703 z m 13.10155,-1.221339 c -0.804917,-0.244253 -4.46155,-2.539773 -4.46155,-2.800822 0,-0.159398 0.488762,0.113625 1.68,0.93845 1.751889,1.213026 0.794941,-0.498112 -1.02217,-1.82776 -0.606193,-0.443575 -0.986915,-0.806499 -0.846049,-0.806499 0.581494,0 2.694198,1.977032 3.062259,2.865611 0.304046,0.734032 0.742484,1.063216 1.881201,1.412425 0.816617,0.250431 1.268759,0.457945 1.004759,0.461142 -0.264,0.0032 -0.848302,-0.10595 -1.29845,-0.242547 z m 3.541374,-0.493108 c -0.217492,-0.262062 -0.508035,-0.406889 -0.645651,-0.321838 -0.247311,0.152847 -0.755694,-0.789931 -0.541477,-1.004148 0.06097,-0.06097 0.523305,0.319636 1.027402,0.845801 0.504097,0.526164 0.835231,0.956662 0.735853,0.956662 -0.09938,0 -0.358635,-0.214415 -0.576127,-0.476477 z M 36.160001,30.115293 c 0,-0.215254 -0.468,-0.831941 -1.04,-1.370414 -0.954526,-0.898577 -0.966608,-0.93282 -0.147006,-0.416644 0.939749,0.591844 1.687867,1.677569 1.372932,1.992504 -0.102259,0.102259 -0.185926,0.0098 -0.185926,-0.205446 z m -9.6,-2.240724 c -2.665002,-0.738322 -1.326106,-6.296031 2.043375,-8.481977 2.605833,-1.690531 4.458567,-1.839565 5.921807,-0.47635 0.644757,0.600683 0.727418,0.912334 0.577568,2.17758 -0.333518,2.816038 -2.215924,5.154446 -5.167918,6.419819 -1.576853,0.675918 -2.053762,0.726922 -3.374832,0.360928 z m 3.304177,-0.708515 c 2.016702,-0.771748 3.016491,-1.710608 4.189005,-3.933716 1.059114,-2.008098 1.059807,-3.188441 0.0025,-4.245756 -0.689237,-0.689236 -1.030089,-0.796727 -2.079905,-0.655917 -1.639486,0.219901 -3.899745,1.562592 -4.951347,2.941313 -1.10609,1.450159 -1.894479,4.409712 -1.413902,5.307679 0.333668,0.623463 1.312828,1.195935 2.121005,1.240058 0.204338,0.01116 1.164032,-0.282991 2.132652,-0.653661 z m 7.575823,-2.80943 -1.12,-1.09154 1.030323,0.702357 c 0.988619,0.673928 1.558463,1.285252 1.32172,1.417931 -0.06162,0.03454 -0.616043,-0.4284 -1.232043,-1.028748 z m 9.44,-1.590028 c -0.528,-0.325056 -1.437292,-1.296518 -2.02065,-2.158804 -0.808417,-1.194956 -0.846466,-1.302456 -0.16,-0.45204 1.133371,1.404056 2.04387,2.297229 2.839461,2.785429 0.341654,0.20965 0.549189,0.389111 0.461189,0.398803 -0.088,0.0097 -0.592,-0.248332 -1.12,-0.573388 z M 36.714284,22.228463 c -0.656856,-0.446345 -1.194283,-0.888151 -1.194283,-0.98179 0,-0.09364 0.396,0.105592 0.88,0.442737 0.484,0.337145 1.168,0.774571 1.52,0.972059 0.352,0.197488 0.493427,0.363447 0.314283,0.368799 -0.179144,0.0054 -0.863144,-0.35546 -1.52,-0.801805 z m 9.341519,-4.925519 c -1.117995,-1.716474 -1.950569,-2.647976 -2.574134,-2.88 -0.506918,-0.188619 -1.348894,-0.502437 -1.871058,-0.697372 -0.522165,-0.194936 -1.130218,-0.572311 -1.351229,-0.838613 -0.244702,-0.294849 0.0327,-0.219288 0.709391,0.193231 0.611175,0.372579 1.387633,0.677955 1.725461,0.678613 0.80423,0.0016 -2.04001,-1.434111 -4.165787,-2.10275 -0.906523,-0.285137 -1.918274,-0.4491 -2.248335,-0.364362 -0.501172,0.128667 -0.481406,0.160188 0.119889,0.191188 0.396,0.02042 0.72,0.166021 0.72,0.323565 0,0.157545 -0.87683,0.01354 -1.94851,-0.32 C 34.09981,11.1529 32.63581,10.88 31.918157,10.88 c -0.717653,0 -1.238215,-0.06661 -1.156806,-0.148018 0.294328,-0.294327 3.981457,-0.406832 4.91865,-0.150082 3.427528,0.938995 4.89454,1.427517 5.748939,1.914426 0.534083,0.304366 1.512387,0.724811 2.174008,0.934323 0.661621,0.209511 1.134405,0.491832 1.050631,0.62738 -0.190668,0.308508 1.144734,2.160549 2.32318,3.22197 0.488512,0.44 0.699107,0.67148 0.46799,0.5144 -0.643214,-0.437163 -0.888967,0.05011 -0.344793,0.683638 0.620388,0.722262 0.983489,1.361962 0.773065,1.361962 -0.09061,0 -0.908362,-1.141675 -1.817218,-2.537055 z m -2.055802,-3.222945 c -0.108774,-0.176 -0.369273,-0.317795 -0.578886,-0.3151 -0.228997,0.0029 -0.189528,0.128713 0.09889,0.3151 0.614759,0.397288 0.725537,0.397288 0.48,0 z m -8.64,-3.199999 c -0.879708,-0.378024 -1.384949,-0.378024 -0.8,0 0.264,0.170609 0.696,0.302283 0.96,0.292608 0.316497,-0.0116 0.261997,-0.11127 -0.16,-0.292608 z m 3.255123,7.548258 c -0.101168,-0.263639 -0.802957,-0.79644 -1.559532,-1.184003 -1.293035,-0.662369 -1.530227,-0.682441 -3.952199,-0.334457 -1.417134,0.20361 -2.929134,0.359246 -3.36,0.345856 -1.301911,-0.04046 1.211118,-0.882237 2.720608,-0.91131 1.593287,-0.03069 1.152601,-0.569829 -0.624,-0.763412 -0.704,-0.07671 -0.366621,-0.08997 0.749732,-0.02947 1.418815,0.0769 2.556574,0.37677 3.780126,0.996311 1.758773,0.890548 2.920904,1.868126 2.601046,2.187985 -0.09451,0.09451 -0.254613,-0.04387 -0.355781,-0.307504 z m 4.424877,-0.0611 c -0.704,-0.254274 -1.64,-0.74974 -2.08,-1.101038 -0.681393,-0.544026 -0.562787,-0.525348 0.8,0.125986 0.88,0.42059 1.96,0.917679 2.4,1.104643 1.178618,0.500816 0.364629,0.406633 -1.12,-0.129591 z m -2.885866,-3.052642 c -1.786542,-1.485466 -5.018591,-3.137312 -6.234134,-3.186162 -0.44,-0.01768 -1.16,-0.15227 -1.6,-0.299085 -0.515364,-0.17196 -0.173801,-0.201654 0.96,-0.08346 1.994844,0.207961 4.861577,1.525877 6.556895,3.014386 0.62953,0.552735 1.247763,0.898681 1.373852,0.768769 0.126089,-0.129911 -0.490747,-0.889832 -1.370747,-1.688712 -0.88,-0.79888 -1.168,-1.157831 -0.64,-0.797668 1.366931,0.932419 2.395925,2.105441 2.550354,2.907326 0.07309,0.379547 0.102527,0.690085 0.06541,0.690085 -0.03712,0 -0.784852,-0.596467 -1.661626,-1.325483 z m 6.866798,-0.177685 c -0.40264,-0.669257 -0.759581,-1.257347 -0.793204,-1.306867 -0.03362,-0.04952 -0.38363,-0.152142 -0.777795,-0.228052 -0.394165,-0.07591 -1.398256,-0.575393 -2.231314,-1.109965 -0.833057,-0.534571 -1.718043,-0.974153 -1.966634,-0.976848 -0.248592,-0.0027 -0.667985,-0.151069 -0.931985,-0.32972 -1.160178,-0.785103 1.542687,0.156978 2.908015,1.013586 1.675774,1.051382 2.165068,1.167828 1.531167,0.364398 -0.24155,-0.30615 0.0459,-0.157073 0.638778,0.331282 1.118949,0.921681 2.737832,3.076229 2.494358,3.319703 -0.07662,0.07662 -0.468747,-0.40826 -0.871386,-1.077517 z m 1.324331,0.438742 c -0.01389,-0.321434 -0.997263,-1.529708 -2.185263,-2.685054 -2.135819,-2.077111 -2.144289,-2.092063 -0.756608,-1.335574 2.891814,1.576463 3.405263,1.952924 2.252358,1.651433 -0.710883,-0.1859 -0.707252,-0.163641 0.158455,0.971358 0.487305,0.638891 0.81183,1.346264 0.721166,1.571941 -0.09976,0.248317 -0.174819,0.179576 -0.190108,-0.174104 z m -1.4642,-2.773853 c -0.108189,-0.175053 -0.512687,-0.472718 -0.898885,-0.661477 -0.604931,-0.295666 -0.591383,-0.252572 0.09782,0.311164 0.895913,0.732813 1.089888,0.817641 0.801063,0.350313 z m 2.7442,1.555515 c -0.02431,-0.503093 -1.176373,-1.667535 -3.545263,-3.583367 -0.616,-0.498188 -0.832,-0.763209 -0.48,-0.588936 1.310261,0.648702 4.420874,3.753305 4.23476,4.226578 -0.149784,0.380886 -0.188958,0.370737 -0.209497,-0.05428 z m -1.785263,-3.829308 c -0.528,-0.52552 -2.004,-1.4552333 -3.28,-2.0660296 -2.759992,-1.321154 -3.100645,-1.730365 -0.48,-0.5766025 1.57182,0.6920079 5.2,3.1435551 5.2,3.5136201 0,0.336232 -0.57886,-0.01389 -1.44,-0.870988 z m -5.12,-0.132923 c -0.176,-0.06296 -1.15942,-0.280169 -2.185378,-0.4826922 -1.025958,-0.202523 -1.803423,-0.4301785 -1.7277,-0.5059012 0.155614,-0.1556134 4.754515,0.7683594 4.988379,1.0022234 0.170819,0.170819 -0.586506,0.16122 -1.075301,-0.01363 z m 3.36,-2.276339 c -0.44,-0.2168511 -1.52,-0.7011929 -2.4,-1.0763152 -1.715114,-0.731111 -1.143363,-0.6675803 0.959162,0.1065782 0.703539,0.259046 1.394532,0.3996905 1.535539,0.3125434 0.382497,-0.2363964 -0.412492,-1.0614717 -1.022766,-1.0614717 -0.291336,0 -0.776294,-0.288 -1.077686,-0.64 -0.687693,-0.8031665 -1.246639,-0.8022028 -3.37256,0.00581 -1.131495,0.4300572 -1.870235,0.5492789 -2.213433,0.3572156 -0.379341,-0.2122897 -0.05821,-0.352997 1.218311,-0.5338118 l 1.733433,-0.2455355 -0.96,-0.4198495 C 39.554637,4.5191315 39.57468,4.510871 41.03554,4.6948761 c 0.845339,0.1064761 1.6944,0.048857 1.92,-0.130295 0.222454,-0.176653 1.333408,-0.4223764 2.468788,-0.5460521 1.135379,-0.1236756 2.323379,-0.3635057 2.64,-0.5329558 0.737756,-0.394835 0.748813,-0.00756 0.01567,0.5489719 -0.337818,0.2564404 -1.445237,0.4291383 -2.791202,0.4352776 -2.018164,0.00921 -2.169374,0.053483 -1.583658,0.4637346 0.356149,0.2494566 1.185186,0.5544197 1.842303,0.6776957 0.657118,0.123276 1.513764,0.5067137 1.903658,0.8520837 L 48.160001,7.0912822 47.368799,6.585641 C 46.933638,6.3075383 46.362781,6.0799997 46.100228,6.0799997 c -0.394445,0 -0.381547,0.095823 0.07425,0.5516178 0.599454,0.5994541 2.802763,0.7499807 3.905525,0.2668194 0.382887,-0.1677572 0.534356,-0.1635078 0.377034,0.010577 -0.144632,0.160042 -0.720632,0.4600302 -1.28,0.6666404 -0.843791,0.3116655 -0.894388,0.379802 -0.297034,0.4 0.396,0.01339 0.72,0.1434052 0.72,0.2889232 0,0.1455181 -0.430531,0.2013898 -0.956735,0.1241595 -0.526204,-0.07723 -0.877705,-0.2682906 -0.781114,-0.4245783 0.261617,-0.4233061 -0.07633,-0.343359 -0.559294,0.1323106 -0.339132,0.33401 -0.581255,0.3384046 -1.222857,0.022195 z M 45.353334,5.8866664 c -0.106333,-0.1063333 -0.382333,-0.1177017 -0.613333,-0.025263 -0.255275,0.1021524 -0.179448,0.1779784 0.193333,0.1933333 0.337334,0.013895 0.526334,-0.061737 0.42,-0.1680703 z m -8.787243,0.2915763 c 0.31135,-0.081134 0.74335,-0.075798 0.96,0.011857 0.21665,0.087655 -0.03809,0.1540376 -0.56609,0.1475161 -0.528,-0.00652 -0.70526,-0.078239 -0.39391,-0.1593731 z m 5.67391,-2.6412576 c 0.36845,-0.2789377 0.108167,-0.3136075 -1.12,-0.1491844 -0.88,0.1178116 -1.50587,0.1136216 -1.390821,-0.00931 0.115048,-0.1229328 0.907048,-0.2653483 1.76,-0.3164788 2.149246,-0.1288373 3.919663,-0.5127103 4.160295,-0.9020616 0.134644,-0.2178582 -0.691491,-0.2757517 -2.467686,-0.1729294 -3.054862,0.1768432 -2.518485,-0.1848591 0.793976,-0.5354122 1.218671,-0.1289702 2.442671,-0.3117151 2.72,-0.4060998 0.320478,-0.10906934 0.271185,0.00947 -0.135261,0.3252784 -1.090491,0.8473078 -0.225266,1.0234629 1.171403,0.2384912 0.72861,-0.4095019 1.216264,-0.5690217 1.083675,-0.3544883 -0.132589,0.2145334 -0.550335,0.5278117 -0.928326,0.6961742 -0.546645,0.2434839 -0.460154,0.2704037 0.422745,0.1315751 0.655686,-0.1031011 0.983119,-0.058236 0.8,0.1096162 -0.1705,0.1562849 -1.606,0.50123 -3.19,0.7665445 -1.584,0.2653145 -3.168,0.5857288 -3.52,0.7120318 -0.525508,0.1885604 -0.554131,0.1646342 -0.16,-0.1337456 z"
       id="path1" />
  </g>
</svg>
