<?xml version="1.0" encoding="UTF-8" standalone="no"?>
<!-- Created with Inkscape (http://www.inkscape.org/) -->

<svg
   version="1.1"
   id="svg1"
   width="96"
   height="128"
   viewBox="0 0 96 128"
   sodipodi:docname="EyeHand.svg"
   inkscape:version="1.3.2 (091e20ef0f, 2023-11-25)"
   inkscape:export-filename="EyeHand.svg"
   inkscape:export-xdpi="400"
   inkscape:export-ydpi="400"
   xmlns:inkscape="http://www.inkscape.org/namespaces/inkscape"
   xmlns:sodipodi="http://sodipodi.sourceforge.net/DTD/sodipodi-0.dtd"
   xmlns="http://www.w3.org/2000/svg"
   xmlns:svg="http://www.w3.org/2000/svg">
  <defs
     id="defs1" />
  <sodipodi:namedview
     id="namedview1"
     pagecolor="#ffffff"
     bordercolor="#000000"
     borderopacity="0.25"
     inkscape:showpageshadow="2"
     inkscape:pageopacity="0.0"
     inkscape:pagecheckerboard="0"
     inkscape:deskcolor="#d1d1d1"
     inkscape:export-bgcolor="#ffffff00"
     inkscape:zoom="2.9279034"
     inkscape:cx="63.185145"
     inkscape:cy="50.035804"
     inkscape:window-width="1366"
     inkscape:window-height="717"
     inkscape:window-x="0"
     inkscape:window-y="27"
     inkscape:window-maximized="1"
     inkscape:current-layer="g1" />
  <g
     inkscape:groupmode="layer"
     inkscape:label="Image"
     id="g1">
    <path
       id="path862"
       style="display:inline;fill:#ab2945;fill-opacity:1"
       d="m 47.234375,16.75 c -1.280465,-0.03258 -2.589195,0.357183 -3.507813,1.177734 l -0.560546,0.501954 c -0.01021,0.0177 -0.02063,0.03529 -0.03125,0.05273 -0.02166,0.03472 -0.04201,0.07006 -0.0625,0.105469 -0.02082,0.03501 -0.0409,0.06979 -0.06055,0.105468 -0.01784,0.03243 -0.03505,0.06514 -0.05273,0.09766 -0.01837,0.03258 -0.03609,0.06613 -0.05273,0.09961 -0.01591,0.03163 -0.02918,0.06506 -0.04297,0.09766 -0.01424,0.03405 -0.02842,0.06686 -0.04102,0.101563 -0.01453,0.04081 -0.02664,0.083 -0.03711,0.125 -0.01085,0.04402 -0.0195,0.08855 -0.0293,0.132812 -0.0094,0.04142 -0.01844,0.08349 -0.02734,0.125 -0.0043,0.01895 -0.0075,0.0379 -0.01172,0.05664 l -0.08594,12.765625 -0.0918,13.46875 -0.96875,-0.716797 c -1.332894,-0.985452 -4.339748,-1.012331 -5.634765,-0.05078 -1.728723,1.283562 -1.686306,0.740361 -1.691406,21.779297 l -0.0039,19.576171 -1.001953,-0.5 c -2.282287,-1.138549 -6.112774,-0.751633 -7.283203,0.736329 -0.741572,0.942759 -1.070063,6.373175 -0.636719,10.53125 0.165082,1.583978 0.430474,4.897325 0.589844,7.361325 0.267322,4.13293 0.37696,4.66478 1.40625,6.87891 0.657853,1.41502 1.789576,3.12239 2.759766,4.16015 4.715123,5.04352 5.042023,5.49874 5.455078,7.59961 0.416224,2.11705 1.124889,2.84887 0.775391,0.80078 -0.510487,-2.99141 -0.777629,-3.43991 -4.308594,-7.2793 -1.942343,-2.11189 -3.615692,-4.16454 -3.71875,-4.56054 -0.103058,-0.396 -0.339137,-0.7207 -0.525391,-0.7207 -0.186252,0 -0.248986,-0.0889 -0.138672,-0.19922 0.110314,-0.11031 -0.01735,-0.6247 -0.285156,-1.14258 -0.314129,-0.60746 -0.589792,-2.55297 -0.775391,-5.48047 -0.15822,-2.49581 -0.435468,-5.833987 -0.617187,-7.417965 -0.342848,-2.988485 -0.130938,-7.730183 0.359375,-8.033203 0.154593,-0.09554 0.241719,-0.0012 0.193359,0.208984 -0.111446,0.48424 1.803514,1.208711 3.271485,1.238281 1.5498,0.03122 3.600496,-0.561328 4.080078,-1.179687 0.324339,-0.418212 0.40039,0.558342 0.40039,5.164062 0,3.749426 0.11047,5.612568 0.324219,5.480469 0.213962,-0.132235 0.321406,-8.577313 0.316406,-24.898438 -0.0042,-13.584173 -0.006,-24.884106 -0.0039,-25.109375 0.0025,-0.265343 0.347785,-0.154762 0.982422,0.314454 1.385309,1.024189 4.335405,1.024189 5.720703,0 l 0.980469,-0.72461 V 68.96875 c 0,12.844015 0.108335,19.322422 0.320312,19.191406 0.209988,-0.129784 0.31836,-11.572866 0.31836,-33.285156 V 21.789062 l 0.787109,0.785157 c 0.432,0.431989 1.043375,0.795524 1.359375,0.808593 0.316,0.01308 0.913439,0.08739 1.328125,0.164063 1.046797,0.193537 3.242194,-0.444032 3.457031,-1.003906 0.09777,-0.254776 0.305721,-0.462891 0.462891,-0.462891 0.165721,0 0.287109,13.038463 0.287109,31.039063 0,20.479769 0.107226,31.041015 0.31836,31.041015 0.210434,0 0.320312,-8.063362 0.320312,-23.548828 V 37.0625 l 1.013672,0.853516 c 0.593308,0.499224 1.25542,0.787275 1.599609,0.697265 0.323087,-0.08449 0.587891,-0.0176 0.587891,0.148438 0,0.443308 2.890894,0.02439 3.759766,-0.544922 0.423483,-0.277484 0.647783,-0.650085 0.523437,-0.871094 -0.155136,-0.275735 -0.112588,-0.289678 0.150391,-0.04883 0.271811,0.24896 0.368041,7.343787 0.369141,27.121094 9.51e-4,17.493553 0.111053,26.78125 0.318359,26.78125 0.203914,0 0.318359,-4.07968 0.318359,-11.414063 V 68.369141 l 0.753906,0.708984 c 1.657576,1.5572 4.855023,1.62535 6.617188,0.142578 l 0.949219,-0.796875 v 29.308594 c 0,19.325408 0.109308,29.306638 0.320312,29.306638 0.211065,0 0.31836,-10.24529 0.31836,-30.097654 0,-15.949472 -0.09933,-28.734057 -0.22461,-29.589844 -0.0078,-0.03267 -0.01543,-0.06561 -0.02539,-0.09766 -0.0171,-0.05497 -0.03407,-0.110302 -0.05469,-0.164062 -0.01099,-0.02662 -0.02345,-0.05307 -0.04102,-0.07617 -0.04187,-0.05505 -0.06185,-0.108013 -0.06445,-0.152344 -3.9e-5,-6.72e-4 3.2e-5,-0.0013 0,-0.002 -0.05775,-0.109667 -0.103241,-0.283433 -0.117187,-0.515625 -0.161635,-2.691235 -5.028206,-3.871018 -7.474609,-1.8125 l -0.939454,0.791016 -0.08789,-15.515625 -0.08594,-14.914063 c -5.13e-4,-0.002 -0.0014,-0.0039 -0.002,-0.0059 -0.01072,-0.04308 -0.02175,-0.08554 -0.03125,-0.128907 -0.0083,-0.03558 -0.01792,-0.07074 -0.0293,-0.105468 -0.01166,-0.03697 -0.0213,-0.07444 -0.0332,-0.111328 -0.01247,-0.03772 -0.02698,-0.07492 -0.04297,-0.111328 -0.01815,-0.04143 -0.03697,-0.08329 -0.05859,-0.123047 -0.02567,-0.04856 -0.05094,-0.09768 -0.07617,-0.146485 -0.02687,-0.05151 -0.05338,-0.102707 -0.08008,-0.154297 -0.02435,-0.0461 -0.04808,-0.09275 -0.07617,-0.136718 -0.02972,-0.04449 -0.0646,-0.08651 -0.09961,-0.126953 -0.01975,-0.0234 -0.03944,-0.04704 -0.05859,-0.07031 -0.0032,-0.0039 -0.0065,-0.0078 -0.0098,-0.01172 l -0.175781,-0.1875 c -0.0018,-0.0014 -0.004,-0.0025 -0.0059,-0.0039 -0.01426,-0.01105 -0.02809,-0.02266 -0.04297,-0.0332 -0.02524,-0.01789 -0.04518,-0.03572 -0.06055,-0.05469 -1.605261,-1.584454 -4.859678,-1.710431 -6.634766,-0.216797 l -0.933594,0.785157 -0.0957,-7.509766 C 51.361541,18.984794 51.353562,18.924256 50.580078,18.101562 49.767174,17.236952 48.51484,16.782582 47.234375,16.75 Z m 0.101563,0.638672 c 1.163337,0.07475 2.291879,0.606163 3.011718,1.570312 0.793564,1.062896 0.508633,2.235605 -0.77539,3.191407 -1.72719,1.285666 -4.692147,0.907245 -5.851563,-0.748047 -0.748249,-1.06828 -0.647166,-1.805959 0.390625,-2.84375 0.862482,-0.862482 2.061262,-1.24467 3.22461,-1.169922 z m 8.679687,15.392578 c 1.039224,-0.0108 1.838061,0.03108 1.775391,0.09375 -0.06267,0.06267 0.30204,0.528602 0.808593,1.035156 0.506564,0.506564 0.919922,1.187294 0.919922,1.513672 0,0.91838 -0.934168,2.037444 -2.111328,2.529297 -1.324761,0.553518 -2.237007,0.549367 -3.544922,-0.01953 -1.415075,-0.615537 -2.213341,-1.905589 -1.835937,-2.964844 0.505508,-1.418838 1.865941,-2.16543 3.988281,-2.187501 z M 37.947266,44.746094 c 0.299446,-0.02648 0.907017,0.05491 1.5625,0.222656 1.649911,0.422246 3.050781,1.643476 3.050781,2.658203 0,0.879172 -0.954612,2.003027 -2.111328,2.486328 -0.587345,0.245408 -1.397186,0.440494 -1.798828,0.433594 -1.739448,-0.02983 -3.769532,-1.577737 -3.769532,-2.875 0,-0.754106 1.346764,-2.375594 2.080079,-2.503906 0.351989,-0.06159 0.710828,-0.223736 0.798828,-0.359375 0.022,-0.03391 0.08768,-0.05367 0.1875,-0.0625 z m 26.371093,19.373047 c 0.867092,-0.0066 1.748558,0.224359 2.494141,0.722656 0.477294,0.318988 0.985787,0.545453 1.130859,0.501953 0.14508,-0.0435 0.185864,0.04782 0.08984,0.203125 -0.09598,0.155304 -0.03852,0.753129 0.126953,1.330078 0.16547,0.576961 0.210393,0.958439 0.09961,0.847656 -0.110784,-0.110783 -0.415051,0.101243 -0.673828,0.470703 -0.258788,0.369472 -0.949764,0.873732 -1.53711,1.119141 -0.587334,0.245408 -1.397175,0.445586 -1.798828,0.445313 -1.136695,-7.74e-4 -2.906679,-1.029193 -3.443359,-2 -0.435312,-0.787435 -0.435312,-0.972342 0,-1.759766 0.66208,-1.197641 2.066585,-1.869801 3.511718,-1.880859 z M 29.65625,85.822266 c 1.333951,-0.08584 2.716436,0.17059 3.568359,0.80664 1.093009,0.816049 1.086646,1.609662 -0.01953,2.435547 -1.232468,0.920167 -4.196702,1.083672 -5.660156,0.3125 -1.555719,-0.819787 -1.901556,-1.500341 -1.171875,-2.306641 0.663897,-0.733598 1.949262,-1.162202 3.283202,-1.248046 z m 21.542969,6.33789 c -0.180513,0 -0.31836,0.906767 -0.31836,2.080078 0,1.173322 0.137847,2.080079 0.31836,2.080078 0.180513,10e-7 0.320312,-0.906756 0.320312,-2.080078 0,-1.173311 -0.139799,-2.080078 -0.320312,-2.080078 z m -7.919922,4.292969 c -0.111712,0.111712 0.508974,0.841601 1.378906,1.621094 1.575518,1.411715 2.0625,1.688788 2.0625,1.175781 0,-0.416637 -3.211581,-3.0267 -3.441406,-2.796875 z m 15.841797,0 C 58.891269,96.2233 55.679688,98.833363 55.679688,99.25 c 0,0.513007 0.486982,0.235934 2.0625,-1.175781 0.869932,-0.779493 1.490618,-1.509382 1.378906,-1.621094 z m -8.039063,3.066406 c -1.884495,0 -4.203998,1.212889 -5.185547,2.710939 -0.674462,1.02938 -0.3134,1.52412 0.384766,0.52734 0.278641,-0.39782 1.089075,-1.14458 1.800781,-1.66015 1.065942,-0.77217 1.612335,-0.9375 3.095703,-0.9375 1.998309,0 2.73188,0.38002 4.47461,2.31054 1.056117,1.16998 1.626953,1.4987 1.626953,0.93946 0,-0.50867 -2.804163,-3.23826 -3.662109,-3.564457 -0.472249,-0.179549 -1.613083,-0.326172 -2.535157,-0.326172 z m 0.197266,1.669919 c -0.232774,-0.0144 -0.467538,0.0105 -0.699219,0.084 -1.700623,0.53976 -2.194057,4.42305 -0.660156,5.19531 0.439989,0.22152 0.988057,0.40366 1.216797,0.40625 0.874625,0.01 2.228896,-0.96392 2.605469,-1.87305 0.675335,-1.63043 -0.833494,-3.71156 -2.462891,-3.8125 z m 0.126953,0.63477 c 0.557166,0.0234 1.133796,0.40248 1.548828,1.20508 0.650053,1.25709 0.618042,1.50694 -0.300781,2.42578 -1.423149,1.42316 -3.054688,0.82741 -3.054688,-1.11524 0,-1.60789 0.878024,-2.55471 1.806641,-2.51562 z m 9.023438,0.96094 c -0.173165,0.0238 -0.269532,0.0896 -0.269532,0.19336 0,0.18576 0.324714,0.40026 0.720703,0.47656 1.354805,0.26091 2.158204,0.2242 2.158203,-0.0957 10e-7,-0.176 -0.197453,-0.32032 -0.439453,-0.32032 -0.241989,0 -0.889453,-0.0892 -1.439453,-0.19922 -0.307332,-0.0615 -0.557314,-0.0785 -0.730468,-0.0547 z m -18.814454,0.006 c -0.832084,0.0405 -2.255859,0.39317 -2.255859,0.65039 0,0.1968 0.518642,0.23792 1.347656,0.10547 1.402177,-0.22422 1.757764,-0.38873 1.46875,-0.67774 -0.07125,-0.0713 -0.283182,-0.0916 -0.560547,-0.0781 z m 3.673828,1.95117 c -0.135195,0.0225 -0.143123,0.23527 0.0098,0.63281 0.263104,0.68564 1.517767,1.47103 3.47461,2.17578 1.957212,0.70489 3.373155,0.75646 4.767578,0.17383 1.288937,-0.53857 3.308444,-2.34194 2.984375,-2.66602 -0.131624,-0.13166 -0.340461,-0.0996 -0.462891,0.0723 -0.122431,0.1719 -0.797964,0.74448 -1.501953,1.27148 -1.059258,0.79295 -1.584533,0.95704 -3.041016,0.95704 -1.89271,0 -4.280305,-0.92092 -5.46875,-2.10938 -0.362621,-0.36263 -0.626513,-0.53028 -0.761719,-0.50781 z m -0.109374,2.13867 c -0.368892,0 -1.662065,1.8118 -1.646485,2.30664 0.0072,0.22713 0.438138,-0.086 0.958985,-0.69531 0.954348,-1.11653 1.165913,-1.61133 0.6875,-1.61133 z m 12.039062,0.0606 c -0.265742,-0.0369 -0.143986,0.50689 0.513672,1.36914 0.473488,0.62079 0.924866,1.1289 1.003906,1.1289 0.377602,0 0.04198,-0.89411 -0.654297,-1.74609 -0.406143,-0.49698 -0.703836,-0.7298 -0.863281,-0.75195 z m -6.019531,2.81836 c -0.180513,0 -0.31836,0.90674 -0.31836,2.08007 0,1.17333 0.137847,2.08008 0.31836,2.08008 0.180513,0 0.320312,-0.90675 0.320312,-2.08008 0,-1.17333 -0.139799,-2.08007 -0.320312,-2.08007 z" />
  </g>
</svg>
